<mxfile host="app.diagrams.net" modified="2022-12-14T22:22:50.283Z" agent="5.0 (Macintosh; Intel Mac OS X 10_15_7) AppleWebKit/605.1.15 (KHTML, like Gecko) Version/16.2 Safari/605.1.15" etag="t50wMPjBwQispm-Dd8F6" version="20.7.2" type="github">
  <diagram id="qH5oBzDhGJCajl7ZaMK2" name="Page-1">
    <mxGraphModel dx="598" dy="1207" grid="1" gridSize="10" guides="1" tooltips="1" connect="1" arrows="1" fold="1" page="1" pageScale="1" pageWidth="827" pageHeight="1169" math="0" shadow="0">
      <root>
        <mxCell id="0" />
        <mxCell id="1" parent="0" />
        <mxCell id="00HUXX-bjF2ofL3nJzH--35" value="Poshub" style="rounded=0;whiteSpace=wrap;html=1;verticalAlign=bottom;fontSize=14;fontStyle=1;align=center;spacingLeft=0;" parent="1" vertex="1">
          <mxGeometry x="150" y="130" width="310" height="270" as="geometry" />
        </mxCell>
        <mxCell id="00HUXX-bjF2ofL3nJzH--38" value="Stable" style="rounded=0;whiteSpace=wrap;html=1;fontSize=14;fillColor=#f5f5f5;fontColor=#333333;strokeColor=default;dashed=1;verticalAlign=bottom;fontStyle=1" parent="1" vertex="1">
          <mxGeometry x="310" y="150" width="140" height="130" as="geometry" />
        </mxCell>
        <mxCell id="00HUXX-bjF2ofL3nJzH--33" value="Horizon" style="rounded=0;whiteSpace=wrap;html=1;verticalAlign=bottom;fontStyle=1;fontSize=14;" parent="1" vertex="1">
          <mxGeometry x="560" y="130" width="120" height="270" as="geometry" />
        </mxCell>
        <mxCell id="00HUXX-bjF2ofL3nJzH--11" style="edgeStyle=orthogonalEdgeStyle;rounded=0;orthogonalLoop=1;jettySize=auto;html=1;entryX=0.5;entryY=0;entryDx=0;entryDy=0;" parent="1" source="00HUXX-bjF2ofL3nJzH--1" target="00HUXX-bjF2ofL3nJzH--2" edge="1">
          <mxGeometry relative="1" as="geometry" />
        </mxCell>
        <mxCell id="00HUXX-bjF2ofL3nJzH--1" value="INT" style="rounded=0;whiteSpace=wrap;html=1;fillColor=#dae8fc;strokeColor=#6c8ebf;" parent="1" vertex="1">
          <mxGeometry x="170" y="160" width="100" height="30" as="geometry" />
        </mxCell>
        <mxCell id="00HUXX-bjF2ofL3nJzH--10" style="edgeStyle=orthogonalEdgeStyle;rounded=0;orthogonalLoop=1;jettySize=auto;html=1;entryX=0.5;entryY=0;entryDx=0;entryDy=0;" parent="1" source="00HUXX-bjF2ofL3nJzH--2" target="00HUXX-bjF2ofL3nJzH--3" edge="1">
          <mxGeometry relative="1" as="geometry" />
        </mxCell>
        <mxCell id="00HUXX-bjF2ofL3nJzH--2" value="UAT" style="rounded=0;whiteSpace=wrap;html=1;fillColor=#dae8fc;strokeColor=#6c8ebf;" parent="1" vertex="1">
          <mxGeometry x="170" y="220" width="100" height="30" as="geometry" />
        </mxCell>
        <mxCell id="00HUXX-bjF2ofL3nJzH--9" style="edgeStyle=orthogonalEdgeStyle;rounded=0;orthogonalLoop=1;jettySize=auto;html=1;entryX=0.5;entryY=0;entryDx=0;entryDy=0;" parent="1" source="00HUXX-bjF2ofL3nJzH--3" target="00HUXX-bjF2ofL3nJzH--4" edge="1">
          <mxGeometry relative="1" as="geometry" />
        </mxCell>
        <mxCell id="00HUXX-bjF2ofL3nJzH--12" value="" style="edgeStyle=orthogonalEdgeStyle;rounded=0;orthogonalLoop=1;jettySize=auto;html=1;" parent="1" source="00HUXX-bjF2ofL3nJzH--3" target="00HUXX-bjF2ofL3nJzH--4" edge="1">
          <mxGeometry relative="1" as="geometry" />
        </mxCell>
        <mxCell id="00HUXX-bjF2ofL3nJzH--3" value="OAT" style="rounded=0;whiteSpace=wrap;html=1;fillColor=#f5f5f5;fontColor=#333333;strokeColor=#666666;" parent="1" vertex="1">
          <mxGeometry x="170" y="280" width="100" height="30" as="geometry" />
        </mxCell>
        <mxCell id="00HUXX-bjF2ofL3nJzH--15" style="edgeStyle=orthogonalEdgeStyle;rounded=0;orthogonalLoop=1;jettySize=auto;html=1;entryX=0;entryY=0.5;entryDx=0;entryDy=0;" parent="1" source="00HUXX-bjF2ofL3nJzH--4" target="00HUXX-bjF2ofL3nJzH--5" edge="1">
          <mxGeometry relative="1" as="geometry">
            <Array as="points">
              <mxPoint x="300" y="350" />
              <mxPoint x="300" y="175" />
            </Array>
          </mxGeometry>
        </mxCell>
        <mxCell id="00HUXX-bjF2ofL3nJzH--16" style="edgeStyle=orthogonalEdgeStyle;rounded=0;orthogonalLoop=1;jettySize=auto;html=1;entryX=0;entryY=0.5;entryDx=0;entryDy=0;" parent="1" source="00HUXX-bjF2ofL3nJzH--4" target="00HUXX-bjF2ofL3nJzH--6" edge="1">
          <mxGeometry relative="1" as="geometry">
            <Array as="points">
              <mxPoint x="300" y="350" />
              <mxPoint x="300" y="235" />
            </Array>
          </mxGeometry>
        </mxCell>
        <mxCell id="HC0YbJOWXpDHoiTHWu_P-2" style="edgeStyle=orthogonalEdgeStyle;rounded=0;orthogonalLoop=1;jettySize=auto;html=1;entryX=0;entryY=0.5;entryDx=0;entryDy=0;dashed=1;strokeColor=#FF6666;strokeWidth=2;fontSize=14;startArrow=none;startFill=0;endArrow=none;endFill=0;" edge="1" parent="1" source="00HUXX-bjF2ofL3nJzH--4" target="00HUXX-bjF2ofL3nJzH--31">
          <mxGeometry relative="1" as="geometry" />
        </mxCell>
        <mxCell id="00HUXX-bjF2ofL3nJzH--4" value="PRD" style="rounded=0;whiteSpace=wrap;html=1;fillColor=#d5e8d4;strokeColor=#82b366;" parent="1" vertex="1">
          <mxGeometry x="170" y="340" width="100" height="30" as="geometry" />
        </mxCell>
        <mxCell id="00HUXX-bjF2ofL3nJzH--5" value="INT2" style="rounded=0;whiteSpace=wrap;html=1;fillColor=#fff2cc;strokeColor=#d6b656;" parent="1" vertex="1">
          <mxGeometry x="330" y="160" width="100" height="30" as="geometry" />
        </mxCell>
        <mxCell id="00HUXX-bjF2ofL3nJzH--6" value="UAT2" style="rounded=0;whiteSpace=wrap;html=1;fillColor=#fff2cc;strokeColor=#d6b656;" parent="1" vertex="1">
          <mxGeometry x="330" y="220" width="100" height="30" as="geometry" />
        </mxCell>
        <mxCell id="00HUXX-bjF2ofL3nJzH--21" style="edgeStyle=orthogonalEdgeStyle;rounded=0;orthogonalLoop=1;jettySize=auto;html=1;dashed=1;endArrow=none;endFill=0;strokeWidth=2;strokeColor=#FF6666;" parent="1" source="00HUXX-bjF2ofL3nJzH--13" target="00HUXX-bjF2ofL3nJzH--5" edge="1">
          <mxGeometry relative="1" as="geometry" />
        </mxCell>
        <mxCell id="00HUXX-bjF2ofL3nJzH--29" style="edgeStyle=orthogonalEdgeStyle;rounded=0;orthogonalLoop=1;jettySize=auto;html=1;entryX=0.5;entryY=0;entryDx=0;entryDy=0;endArrow=classic;endFill=1;strokeWidth=2;" parent="1" source="00HUXX-bjF2ofL3nJzH--13" target="00HUXX-bjF2ofL3nJzH--17" edge="1">
          <mxGeometry relative="1" as="geometry" />
        </mxCell>
        <mxCell id="00HUXX-bjF2ofL3nJzH--13" value="INT" style="rounded=0;whiteSpace=wrap;html=1;fillColor=#dae8fc;strokeColor=#6c8ebf;" parent="1" vertex="1">
          <mxGeometry x="570" y="160" width="100" height="30" as="geometry" />
        </mxCell>
        <mxCell id="00HUXX-bjF2ofL3nJzH--26" style="edgeStyle=orthogonalEdgeStyle;rounded=0;orthogonalLoop=1;jettySize=auto;html=1;entryX=1;entryY=0.5;entryDx=0;entryDy=0;dashed=1;endArrow=none;endFill=0;strokeWidth=2;strokeColor=#FF6666;" parent="1" source="00HUXX-bjF2ofL3nJzH--17" target="00HUXX-bjF2ofL3nJzH--6" edge="1">
          <mxGeometry relative="1" as="geometry" />
        </mxCell>
        <mxCell id="00HUXX-bjF2ofL3nJzH--30" style="edgeStyle=orthogonalEdgeStyle;rounded=0;orthogonalLoop=1;jettySize=auto;html=1;entryX=0.5;entryY=0;entryDx=0;entryDy=0;startArrow=none;startFill=0;endArrow=classic;endFill=1;strokeWidth=2;" parent="1" source="00HUXX-bjF2ofL3nJzH--17" target="00HUXX-bjF2ofL3nJzH--27" edge="1">
          <mxGeometry relative="1" as="geometry" />
        </mxCell>
        <mxCell id="00HUXX-bjF2ofL3nJzH--17" value="UAT" style="rounded=0;whiteSpace=wrap;html=1;fillColor=#dae8fc;strokeColor=#6c8ebf;" parent="1" vertex="1">
          <mxGeometry x="570" y="220" width="100" height="30" as="geometry" />
        </mxCell>
        <mxCell id="00HUXX-bjF2ofL3nJzH--28" style="edgeStyle=orthogonalEdgeStyle;rounded=0;orthogonalLoop=1;jettySize=auto;html=1;entryX=1;entryY=0.5;entryDx=0;entryDy=0;endArrow=none;endFill=0;dashed=1;strokeWidth=2;strokeColor=#FF6666;" parent="1" source="00HUXX-bjF2ofL3nJzH--27" target="00HUXX-bjF2ofL3nJzH--3" edge="1">
          <mxGeometry relative="1" as="geometry" />
        </mxCell>
        <mxCell id="00HUXX-bjF2ofL3nJzH--32" style="edgeStyle=orthogonalEdgeStyle;rounded=0;orthogonalLoop=1;jettySize=auto;html=1;entryX=0.5;entryY=0;entryDx=0;entryDy=0;startArrow=none;startFill=0;endArrow=classic;endFill=1;" parent="1" source="00HUXX-bjF2ofL3nJzH--27" target="00HUXX-bjF2ofL3nJzH--31" edge="1">
          <mxGeometry relative="1" as="geometry" />
        </mxCell>
        <mxCell id="00HUXX-bjF2ofL3nJzH--27" value="OAT" style="rounded=0;whiteSpace=wrap;html=1;fillColor=#f5f5f5;fontColor=#333333;strokeColor=#666666;" parent="1" vertex="1">
          <mxGeometry x="570" y="280" width="100" height="30" as="geometry" />
        </mxCell>
        <mxCell id="00HUXX-bjF2ofL3nJzH--31" value="PRD" style="rounded=0;whiteSpace=wrap;html=1;fillColor=#d5e8d4;strokeColor=#82b366;" parent="1" vertex="1">
          <mxGeometry x="570" y="340" width="100" height="30" as="geometry" />
        </mxCell>
        <mxCell id="HC0YbJOWXpDHoiTHWu_P-1" value="&lt;h1&gt;Environments&lt;/h1&gt;" style="text;html=1;strokeColor=none;fillColor=none;align=center;verticalAlign=middle;whiteSpace=wrap;rounded=0;dashed=1;labelBackgroundColor=none;fontSize=14;" vertex="1" parent="1">
          <mxGeometry x="340" y="60" width="220" height="30" as="geometry" />
        </mxCell>
      </root>
    </mxGraphModel>
  </diagram>
</mxfile>
